<?xml version="1.0" encoding="UTF-8" standalone="no"?>
<svg
   xmlns:dc="http://purl.org/dc/elements/1.1/"
   xmlns:cc="http://creativecommons.org/ns#"
   xmlns:rdf="http://www.w3.org/1999/02/22-rdf-syntax-ns#"
   xmlns:svg="http://www.w3.org/2000/svg"
   xmlns="http://www.w3.org/2000/svg"
   viewBox="0 0 1374 1375"
   height="1375"
   width="1374"
   id="svg815"
   version="1.1">
  <metadata
     id="metadata821">
    <rdf:RDF>
      <cc:Work
         rdf:about="">
        <dc:format>image/svg+xml</dc:format>
        <dc:type
           rdf:resource="http://purl.org/dc/dcmitype/StillImage" />
        <dc:title></dc:title>
      </cc:Work>
    </rdf:RDF>
  </metadata>
  <defs
     id="defs819" />
  <path
     style="fill:#eb1b23"
     d="M 651.77504,1368.3159 C 426.14707,1357.1293 219.31998,1232.7411 102.37938,1037.903 30.176678,917.60386 -2.8144221,779.16615 7.1746779,638.40293 17.806878,488.57565 78.148178,345.97487 178.33818,233.90293 c 16.884,-18.88634 47.9593,-49.33677 66.2749,-64.94234 C 393.71159,41.923462 588.01643,-14.647423 782.1131,12.470138 c 113.60769,15.872313 221.3316,60.354861 313.5,129.453912 47.868,35.88685 93.5832,80.85028 130.1185,127.97888 121.1609,156.29084 168.1509,355.81125 129.7686,551 -20.8042,105.79738 -68.707,208.45407 -136.7231,293.00007 -28.2386,35.1014 -66.3668,73.5818 -100.664,101.5938 -131.46319,107.3717 -295.93102,161.2679 -466.33806,152.8191 z M 578.9131,1033.203 c 0.87363,-0.8736 1.2,-8.4889 1.2,-28 v -26.80007 h 32.56574 c 20.53605,0 33.28025,-0.38239 34.5,-1.03518 1.75726,-0.94046 1.93426,-2.20326 1.93426,-13.8 0,-8.59486 -0.39201,-13.15683 -1.2,-13.96482 -0.88532,-0.88532 -9.93927,-1.2 -34.52673,-1.2 h -33.32674 l 0.27674,-14.75 0.27673,-14.75 38.5,-0.5 38.5,-0.5 0.27746,-14.25 0.27745,-14.25 H 603.14056 548.1131 v 71.91667 c 0,56.5977 0.26626,72.0242 1.25,72.4211 2.78113,1.1222 28.35545,0.6569 29.55,-0.5377 z m 132.93946,0.3822 c 0.94901,-0.6027 1.30051,-11.2025 1.5,-45.23482 0.19202,-32.75878 0.5639,-44.44745 1.41409,-44.44745 0.63446,0 9.32207,12.375 19.3058,27.5 9.98373,15.12495 18.61762,27.95005 19.18642,28.50005 1.3834,1.33772 2.49849,-0.1756 22.84321,-31.00005 9.43828,-14.3 17.57687,-26.15 18.08576,-26.33333 0.55822,-0.20111 0.92526,17.47145 0.92526,44.54998 0,33.57602 0.30231,45.18572 1.2,46.08342 1.26314,1.2631 26.15534,1.7683 29.21821,0.593 1.42209,-0.5457 1.58179,-7.8655 1.58179,-72.50006 v -71.89301 h -17.34572 -17.34572 l -18.30856,29.5 c -10.06971,16.225 -18.81302,29.5 -19.42958,29.5 -0.61657,0 -9.37651,-13.28539 -19.46654,-29.5231 l -18.34552,-29.52309 -17.12918,0.27309 -17.12918,0.2731 -0.25672,71.43683 c -0.20299,56.48784 0.006,71.60384 1,72.23474 1.62796,1.0336 26.87074,1.043 28.49618,0.011 z M 358.1131,743.90293 l 0.5,-46 h 24.88355 24.88354 l 29.88777,44.5 c 16.43827,24.475 30.54877,45.2875 31.35666,46.25 1.34894,1.60707 4.40991,1.75 37.47869,1.75 31.48293,0 36.00979,-0.19024 36.00979,-1.51332 0,-0.83233 -15.07861,-23.52993 -33.50802,-50.4391 -18.4294,-26.90918 -33.76586,-49.59772 -34.081,-50.41897 -0.41984,-1.09408 1.44724,-2.4266 6.98524,-4.98531 15.85355,-7.32479 32.58557,-21.80929 40.52064,-35.07771 15.87064,-26.53771 17.34699,-69.35856 3.3458,-97.04401 -12.22241,-24.16816 -35.65976,-40.78926 -67.26266,-47.70076 -10.44199,-2.28364 -10.92538,-2.29639 -87.5,-2.30857 l -77.00002,-0.0122 -0.2534,143.39343 c -0.1874,106.02497 0.043,143.75066 0.8843,144.76425 0.9273,1.11733 6.7993,1.32197 31.7534,1.10658 l 30.61572,-0.26431 z m 1.18623,-103.77561 c -0.91123,-1.09796 -1.14492,-11.29083 -0.94782,-41.34082 l 0.26159,-39.88357 h 39 c 37.47164,0 39.27577,0.0868 46.0371,2.21412 12.99683,4.08925 22.37155,13.0739 25.95008,24.87032 2.2387,7.37975 1.95514,20.71742 -0.6014,28.28776 -3.88087,11.49189 -14.45153,20.53657 -29.01674,24.82789 -7.84789,2.31221 -78.86568,3.21381 -80.68281,1.0243 z M 788.6131,761.90293 v -28 l -78,-0.5 -78,-0.5 v -30 -30 l 67.44537,-0.2571 c 52.43211,-0.19987 67.62107,-0.53377 68.23469,-1.5 1.35612,-2.13542 1.00056,-53.16228 -0.38006,-54.5429 -0.90956,-0.90956 -17.4923,-1.2 -68.51534,-1.2 h -67.31533 l 0.26533,-28.75 0.26534,-28.75 77,-0.5 77,-0.5 v -28 -28 l -108.43821,-0.25449 c -86.08987,-0.20204 -108.60236,0.004 -109.23469,1 -1.24271,1.95733 -1.03541,284.49675 0.21045,286.82465 1.01817,1.90247 3.07709,1.93393 110.25,1.68426 l 109.21245,-0.25442 z m 152,27.46971 c 27.86089,-2.6053 53.00881,-10.63214 73.5559,-23.47795 50.0043,-31.26218 74.7107,-91.61819 62.3633,-152.34925 -11.0084,-54.14473 -53.5831,-96.05637 -110.4192,-108.69934 -17.98615,-4.00095 -27.089,-4.44317 -91.46059,-4.44317 H 813.1131 v 144.33333 c 0,79.38334 0.3,144.63334 0.66667,145 1.08402,1.08403 114.83993,0.75789 126.83333,-0.36362 z m -63.85807,-58.46043 c -0.81647,-2.12771 -0.85055,-168.80206 -0.0349,-170.92749 0.53548,-1.39543 4.2172,-1.57924 31.25,-1.56015 26.47509,0.0187 31.82309,0.28261 39.31908,1.94028 38.16396,8.43964 62.41349,37.50724 65.38119,78.37141 1.2633,17.3962 -1.8844,33.72111 -9.4803,49.16667 -10.13337,20.60538 -28.21396,34.91811 -52.57696,41.62035 -7.29121,2.0058 -10.88904,2.23893 -40.60807,2.63129 -29.80078,0.39343 -32.66333,0.28647 -33.25,-1.24236 z"
     id="path7332" />
</svg>
